REM DIRINDEX 1\2,1\3,1\4,1\6,1\5\7,1\5\8
REM DIRNAME cjc114,folder01,folder02,folder03,folder04,folder05,folder06,folder07
TITLE ""
FILE "DB4500_5th_2A_36.mp3" MP3
  TRACK 01 AUDIO
    TITLE "0:"
    INDEX 01 00:00:00
  TRACK 02 AUDIO
    TITLE "2:cjc114_1144"
    INDEX 01 00:00:03
  TRACK 03 AUDIO
    TITLE "0:"
    INDEX 01 00:01:30
  TRACK 04 AUDIO
    TITLE "3:cjc114_1145"
    INDEX 01 00:01:54
  TRACK 05 AUDIO
    TITLE "0:"
    INDEX 01 00:02:71
  TRACK 06 AUDIO
    TITLE "4:cjc114_1146"
    INDEX 01 00:03:19
  TRACK 07 AUDIO
    TITLE "0:"
    INDEX 01 00:07:70
  TRACK 08 AUDIO
    TITLE "2:cjc114_1147"
    INDEX 01 00:08:44
  TRACK 09 AUDIO
    TITLE "0:"
    INDEX 01 00:09:53
  TRACK 10 AUDIO
    TITLE "3:cjc114_1148"
    INDEX 01 00:10:02
  TRACK 11 AUDIO
    TITLE "0:"
    INDEX 01 00:11:29
  TRACK 12 AUDIO
    TITLE "4:cjc114_1149"
    INDEX 01 00:11:54
  TRACK 13 AUDIO
    TITLE "0:"
    INDEX 01 00:15:64
  TRACK 14 AUDIO
    TITLE "2:cjc114_1150"
    INDEX 01 00:16:36
  TRACK 15 AUDIO
    TITLE "0:"
    INDEX 01 00:17:57
  TRACK 16 AUDIO
    TITLE "3:cjc114_1151"
    INDEX 01 00:18:07
  TRACK 17 AUDIO
    TITLE "0:"
    INDEX 01 00:19:01
  TRACK 18 AUDIO
    TITLE "4:cjc114_1152"
    INDEX 01 00:19:24
  TRACK 19 AUDIO
    TITLE "0:"
    INDEX 01 00:22:50
  TRACK 20 AUDIO
    TITLE "4:cjc114_1153"
    INDEX 01 00:23:28
  TRACK 21 AUDIO
    TITLE "0:"
    INDEX 01 00:26:32
  TRACK 22 AUDIO
    TITLE "2:cjc114_1154"
    INDEX 01 00:27:10
  TRACK 23 AUDIO
    TITLE "0:"
    INDEX 01 00:28:25
  TRACK 24 AUDIO
    TITLE "3:cjc114_1155"
    INDEX 01 00:28:53
  TRACK 25 AUDIO
    TITLE "0:"
    INDEX 01 00:29:72
  TRACK 26 AUDIO
    TITLE "4:cjc114_1156"
    INDEX 01 00:30:22
  TRACK 27 AUDIO
    TITLE "0:"
    INDEX 01 00:35:21
  TRACK 28 AUDIO
    TITLE "2:cjc114_1157"
    INDEX 01 00:35:72
  TRACK 29 AUDIO
    TITLE "0:"
    INDEX 01 00:37:01
  TRACK 30 AUDIO
    TITLE "3:cjc114_1158"
    INDEX 01 00:37:28
  TRACK 31 AUDIO
    TITLE "0:"
    INDEX 01 00:38:30
  TRACK 32 AUDIO
    TITLE "4:cjc114_1159"
    INDEX 01 00:38:49
  TRACK 33 AUDIO
    TITLE "0:"
    INDEX 01 00:41:53
  TRACK 34 AUDIO
    TITLE "2:cjc114_1160"
    INDEX 01 00:42:25
  TRACK 35 AUDIO
    TITLE "0:"
    INDEX 01 00:43:33
  TRACK 36 AUDIO
    TITLE "3:cjc114_1161"
    INDEX 01 00:43:64
  TRACK 37 AUDIO
    TITLE "0:"
    INDEX 01 00:45:22
  TRACK 38 AUDIO
    TITLE "4:cjc114_1162"
    INDEX 01 00:45:51
  TRACK 39 AUDIO
    TITLE "0:"
    INDEX 01 00:48:71
  TRACK 40 AUDIO
    TITLE "2:cjc114_1163"
    INDEX 01 00:49:51
  TRACK 41 AUDIO
    TITLE "0:"
    INDEX 01 00:50:58
  TRACK 42 AUDIO
    TITLE "3:cjc114_1164"
    INDEX 01 00:51:11
  TRACK 43 AUDIO
    TITLE "0:"
    INDEX 01 00:52:04
  TRACK 44 AUDIO
    TITLE "4:cjc114_1165"
    INDEX 01 00:52:34
  TRACK 45 AUDIO
    TITLE "0:"
    INDEX 01 00:55:55
  TRACK 46 AUDIO
    TITLE "2:cjc114_1166"
    INDEX 01 00:56:33
  TRACK 47 AUDIO
    TITLE "0:"
    INDEX 01 00:57:35
  TRACK 48 AUDIO
    TITLE "3:cjc114_1167"
    INDEX 01 00:57:64
  TRACK 49 AUDIO
    TITLE "0:"
    INDEX 01 00:59:30
  TRACK 50 AUDIO
    TITLE "4:cjc114_1168"
    INDEX 01 00:59:59
  TRACK 51 AUDIO
    TITLE "0:"
    INDEX 01 01:01:70
  TRACK 52 AUDIO
    TITLE "2:cjc114_1169"
    INDEX 01 01:02:50
  TRACK 53 AUDIO
    TITLE "0:"
    INDEX 01 01:03:65
  TRACK 54 AUDIO
    TITLE "3:cjc114_1170"
    INDEX 01 01:04:17
  TRACK 55 AUDIO
    TITLE "0:"
    INDEX 01 01:05:24
  TRACK 56 AUDIO
    TITLE "4:cjc114_1171"
    INDEX 01 01:05:52
  TRACK 57 AUDIO
    TITLE "0:"
    INDEX 01 01:08:52
  TRACK 58 AUDIO
    TITLE "2:cjc114_1172"
    INDEX 01 01:09:28
  TRACK 59 AUDIO
    TITLE "0:"
    INDEX 01 01:10:51
  TRACK 60 AUDIO
    TITLE "3:cjc114_1173"
    INDEX 01 01:11:02
  TRACK 61 AUDIO
    TITLE "0:"
    INDEX 01 01:12:11
  TRACK 62 AUDIO
    TITLE "4:cjc114_1174"
    INDEX 01 01:12:44
  TRACK 63 AUDIO
    TITLE "0:"
    INDEX 01 01:15:13
  TRACK 64 AUDIO
    TITLE "2:cjc114_1175"
    INDEX 01 01:15:66
  TRACK 65 AUDIO
    TITLE "0:"
    INDEX 01 01:16:60
  TRACK 66 AUDIO
    TITLE "3:cjc114_1176"
    INDEX 01 01:17:14
  TRACK 67 AUDIO
    TITLE "0:"
    INDEX 01 01:18:31
  TRACK 68 AUDIO
    TITLE "4:cjc114_1177"
    INDEX 01 01:18:58
  TRACK 69 AUDIO
    TITLE "0:"
    INDEX 01 01:21:49
  TRACK 70 AUDIO
    TITLE "2:cjc114_1178"
    INDEX 01 01:22:27
  TRACK 71 AUDIO
    TITLE "0:"
    INDEX 01 01:23:48
  TRACK 72 AUDIO
    TITLE "3:cjc114_1179"
    INDEX 01 01:24:02
  TRACK 73 AUDIO
    TITLE "0:"
    INDEX 01 01:25:45
  TRACK 74 AUDIO
    TITLE "4:cjc114_1180"
    INDEX 01 01:25:72
  TRACK 75 AUDIO
    TITLE "0:"
    INDEX 01 01:28:55
  TRACK 76 AUDIO
    TITLE "2:cjc114_1181"
    INDEX 01 01:29:31
  TRACK 77 AUDIO
    TITLE "0:"
    INDEX 01 01:30:48
  TRACK 78 AUDIO
    TITLE "3:cjc114_1182"
    INDEX 01 01:31:02
  TRACK 79 AUDIO
    TITLE "0:"
    INDEX 01 01:32:43
  TRACK 80 AUDIO
    TITLE "4:cjc114_1183"
    INDEX 01 01:32:68
  TRACK 81 AUDIO
    TITLE "0:"
    INDEX 01 01:36:29
  TRACK 82 AUDIO
    TITLE "2:cjc114_1184"
    INDEX 01 01:37:07
  TRACK 83 AUDIO
    TITLE "0:"
    INDEX 01 01:38:10
  TRACK 84 AUDIO
    TITLE "3:cjc114_1185"
    INDEX 01 01:38:42
  TRACK 85 AUDIO
    TITLE "0:"
    INDEX 01 01:40:01
  TRACK 86 AUDIO
    TITLE "4:cjc114_1186"
    INDEX 01 01:40:29
  TRACK 87 AUDIO
    TITLE "0:"
    INDEX 01 01:44:44
